<?xml version="1.0" encoding="utf-8"?>
<!-- Generator: Adobe Illustrator 24.0.0, SVG Export Plug-In . SVG Version: 6.00 Build 0)  -->
<svg version="1.1" id="Layer_1" xmlns="http://www.w3.org/2000/svg" xmlns:xlink="http://www.w3.org/1999/xlink" x="0px" y="0px"
	 viewBox="0 0 186.92 71.37" style="enable-background:new 0 0 186.92 71.37;" xml:space="preserve">
<g>
	<g>
		<path d="M14.32,21.44l-2.38-7.19h0.96l1.13,3.54c0.32,1,0.68,2.13,0.84,2.79h0.02c0.15-0.59,0.55-1.76,0.88-2.78l1.17-3.55h0.93
			l-2.47,7.19H14.32z"/>
		<path d="M18.66,13.85h0.86v1.12h-0.86V13.85z M18.66,16.15h0.86v5.28h-0.86V16.15z"/>
		<path d="M24.73,20.26c0,0.36,0.03,0.89,0.08,1.17h-0.79c-0.03-0.18-0.07-0.47-0.08-0.82c-0.2,0.53-0.74,0.91-1.6,0.91
			c-1.29,0-1.69-0.87-1.69-1.6c0-0.8,0.51-1.68,2.4-1.68c0.32,0,0.56,0,0.81,0v-0.51c0-0.5-0.14-1.02-1.04-1.02
			c-0.77,0-1.04,0.35-1.12,0.94h-0.84c0.08-0.88,0.59-1.61,2-1.61c1.1,0,1.86,0.44,1.86,1.65V20.26z M23.9,18.88
			c-0.21,0-0.51,0-0.84,0c-1.28,0-1.52,0.52-1.52,1c0,0.51,0.31,0.94,0.98,0.94c1.04,0,1.38-0.7,1.38-1.83V18.88z"/>
		<path d="M34.61,17.79c0,2.07-0.96,3.75-3.07,3.75c-1.99,0-2.99-1.58-2.99-3.74c0-1.88,0.98-3.66,3.07-3.66
			C33.61,14.14,34.61,15.72,34.61,17.79z M29.49,17.78c0,1.69,0.68,3,2.11,3c1.48,0,2.11-1.3,2.11-2.99c0-1.64-0.64-2.91-2.1-2.91
			C30.13,14.89,29.49,16.19,29.49,17.78z"/>
		<path d="M39.99,21.03c0,1.65-0.66,2.58-2.26,2.58c-1.54,0-2.01-0.83-2.09-1.58h0.85c0.12,0.59,0.59,0.87,1.26,0.87
			c1.13,0,1.39-0.74,1.39-1.89v-0.43c-0.27,0.59-0.73,0.87-1.55,0.87c-1.24,0-2.05-1.04-2.05-2.67c0-1.71,0.95-2.72,2.17-2.72
			c0.83,0,1.27,0.34,1.41,0.75c0-0.23,0.03-0.53,0.04-0.65h0.84c-0.01,0.25-0.02,0.81-0.02,1.53V21.03z M36.45,18.76
			c0,1.23,0.52,1.93,1.36,1.93c1.01,0,1.36-0.63,1.36-1.96c0-1.32-0.29-1.94-1.32-1.94C36.97,16.8,36.45,17.53,36.45,18.76z"/>
		<path d="M41.48,21.44v-7.59h0.86v7.59H41.48z"/>
		<path d="M43.86,13.85h0.86v1.12h-0.86V13.85z M43.86,16.15h0.86v5.28h-0.86V16.15z"/>
		<path d="M50.54,18.71c0,1.53-0.67,2.82-2.36,2.82c-1.64,0-2.29-1.34-2.29-2.79c0-1.39,0.76-2.68,2.36-2.68
			C49.74,16.05,50.54,17.19,50.54,18.71z M46.78,18.72c0,1.22,0.5,2.08,1.45,2.08c0.99,0,1.41-0.85,1.41-2.09
			c0-1.15-0.48-1.94-1.44-1.94C47.27,16.77,46.78,17.57,46.78,18.72z"/>
		<path d="M54,21.44v-0.05c0-0.74,0.4-1.82,1.97-3.11c1-0.83,1.4-1.16,1.4-1.96c0-0.63-0.34-1.22-1.18-1.22
			c-0.85,0-1.21,0.54-1.31,1.38h-0.83c0.07-1.11,0.68-2.1,2.17-2.1c1.38,0,2.03,0.89,2.03,1.92c0,1.02-0.49,1.53-1.71,2.51
			c-0.84,0.69-1.33,1.34-1.51,1.88h3.43l-0.12,0.75H54z"/>
		<path d="M63.36,15.21h-2.83c-0.06,0.54-0.2,1.73-0.27,2.16c0.26-0.31,0.69-0.56,1.39-0.56c1.3,0,2.04,0.91,2.04,2.27
			c0,1.36-0.7,2.46-2.29,2.46c-1.25,0-2.05-0.64-2.2-1.84h0.86c0.13,0.63,0.49,1.13,1.35,1.13c0.99,0,1.38-0.71,1.38-1.7
			c0-0.95-0.42-1.58-1.33-1.58c-0.74,0-1.12,0.35-1.33,0.85l-0.78-0.14c0.14-0.82,0.37-2.66,0.48-3.78h3.65L63.36,15.21z"/>
		<path d="M69.74,18.38v0.77h-2.53v-0.77H69.74z"/>
		<path d="M77.44,15.21h-2.83c-0.06,0.54-0.2,1.73-0.27,2.16c0.26-0.31,0.69-0.56,1.39-0.56c1.3,0,2.04,0.91,2.04,2.27
			c0,1.36-0.7,2.46-2.29,2.46c-1.25,0-2.05-0.64-2.2-1.84h0.86c0.13,0.63,0.49,1.13,1.35,1.13c0.99,0,1.38-0.71,1.38-1.7
			c0-0.95-0.42-1.58-1.33-1.58c-0.74,0-1.12,0.35-1.33,0.85l-0.78-0.14c0.14-0.82,0.37-2.66,0.48-3.78h3.65L77.44,15.21z"/>
		<path d="M79.68,19.98c0.15,0.56,0.54,0.85,1.16,0.85c1.24,0,1.35-1.65,1.4-2.73c-0.3,0.53-0.86,0.73-1.53,0.73
			c-1.14,0-2.03-0.83-2.03-2.18c0-1.25,0.8-2.29,2.18-2.29c1.68,0,2.25,1.28,2.25,3.17c0,2.28-0.48,4.01-2.34,4.01
			c-1.3,0-1.83-0.77-1.94-1.56H79.68z M79.57,16.59c0,0.98,0.55,1.52,1.31,1.52c0.85,0,1.32-0.51,1.32-1.3
			c0-0.88-0.32-1.75-1.34-1.75C80.13,15.06,79.57,15.59,79.57,16.59z"/>
		<path d="M88.68,17.79c0,1.88-0.42,3.75-2.24,3.75c-1.89,0-2.26-1.94-2.26-3.73c0-1.8,0.6-3.44,2.27-3.44
			C88.19,14.37,88.68,15.95,88.68,17.79z M85.07,17.79c0,1.7,0.3,3.04,1.38,3.04c1.12,0,1.35-1.34,1.35-3.02
			c0-1.47-0.3-2.73-1.34-2.73C85.35,15.07,85.07,16.34,85.07,17.79z"/>
		<path d="M90.66,21.44v-5.95c-0.25,0.16-0.92,0.36-1.21,0.41v-0.68c0.53-0.12,1.11-0.43,1.45-0.77h0.61v7H90.66z"/>
		<path d="M93.02,16.23c0.12-0.95,0.7-1.86,2.1-1.86c1.37,0,1.99,0.81,1.99,1.78c0,0.83-0.51,1.29-0.93,1.45v0.02
			c0.62,0.21,1.22,0.74,1.22,1.75c0,1.08-0.64,2.16-2.32,2.16c-1.5,0-2.13-0.93-2.22-1.9h0.85c0.14,0.65,0.54,1.18,1.41,1.18
			c1.06,0,1.38-0.71,1.38-1.43c0-1.02-0.65-1.36-1.53-1.36h-0.47v-0.7h0.43c0.86,0,1.3-0.34,1.3-1.14c0-0.72-0.44-1.12-1.15-1.12
			c-0.74,0-1.13,0.42-1.27,1.16H93.02z"/>
		<path d="M107.14,18.37c0-1.33,0.01-2.7,0.05-3.46h-0.03c-0.34,1.29-1.44,4.46-2.18,6.53h-0.83c-0.56-1.72-1.69-5.17-2.04-6.54
			h-0.04c0.06,0.83,0.08,2.44,0.08,3.67v2.87h-0.84v-7.19h1.34c0.75,2.13,1.71,5.07,1.96,6.05h0.02c0.14-0.69,1.3-3.91,2.08-6.05
			h1.31v7.19h-0.87V18.37z"/>
		<path d="M113.84,18.71c0,1.53-0.67,2.82-2.36,2.82c-1.64,0-2.29-1.34-2.29-2.79c0-1.39,0.76-2.68,2.36-2.68
			C113.05,16.05,113.84,17.19,113.84,18.71z M110.08,18.72c0,1.22,0.5,2.08,1.45,2.08c0.99,0,1.42-0.85,1.42-2.09
			c0-1.15-0.48-1.94-1.44-1.94C110.57,16.77,110.08,17.57,110.08,18.72z"/>
		<path d="M115,17.81c0-1.1-0.01-1.43-0.02-1.65h0.85c0.01,0.1,0.04,0.61,0.03,0.83c0.22-0.47,0.69-0.93,1.56-0.93
			c0.98,0,1.68,0.55,1.68,1.98v3.41h-0.87v-3.27c0-0.77-0.26-1.36-1.05-1.36c-0.94,0-1.32,0.7-1.32,1.81v2.82H115V17.81z"/>
		<path d="M119.87,16.15h0.85v-1.54h0.86v1.54h1.07v0.71h-1.07v3.31c0,0.44,0.11,0.63,0.56,0.63c0.15,0,0.29-0.01,0.41-0.03v0.65
			c-0.2,0.07-0.51,0.09-0.69,0.09c-0.77,0-1.14-0.29-1.14-1.17v-3.47h-0.85V16.15z"/>
		<path d="M124.06,18.96c-0.01,1.06,0.44,1.86,1.38,1.86c0.85,0,1.11-0.6,1.21-0.87h0.85c-0.17,0.66-0.69,1.59-2.1,1.59
			c-1.65,0-2.21-1.3-2.21-2.76c0-1.3,0.64-2.73,2.26-2.73c1.66,0,2.14,1.29,2.14,2.51c0,0.03,0,0.37-0.01,0.4H124.06z M126.73,18.33
			c-0.03-0.9-0.39-1.58-1.3-1.58c-1.05,0-1.29,0.95-1.34,1.58H126.73z"/>
		<path d="M128.73,17.8c0-0.94-0.01-1.41-0.02-1.64h0.84c0.02,0.15,0.03,0.57,0.03,0.75c0.24-0.45,0.7-0.85,1.48-0.85
			c0.7,0,1.15,0.31,1.35,0.91c0.23-0.48,0.76-0.91,1.56-0.91c0.8,0,1.58,0.41,1.58,1.8v3.59h-0.85V18c0-0.64-0.21-1.2-0.96-1.2
			c-0.82,0-1.17,0.69-1.17,1.53v3.1h-0.84v-3.48c0-0.65-0.27-1.15-0.95-1.15c-0.74,0-1.2,0.57-1.2,1.62v3.01h-0.86V17.8z"/>
		<path d="M141.02,19.94c0,0.66,0.01,1.24,0.02,1.49h-0.83c-0.03-0.15-0.04-0.47-0.05-0.84c-0.24,0.57-0.78,0.93-1.55,0.93
			c-0.83,0-1.62-0.4-1.62-1.82v-3.56h0.86v3.39c0,0.68,0.22,1.24,1.02,1.24c0.75,0,1.27-0.51,1.27-1.67v-2.95h0.88V19.94z"/>
		<path d="M142.54,17.95c0-0.84-0.01-1.53-0.02-1.79h0.85c0.02,0.25,0.02,0.59,0.02,1.07c0.25-0.66,0.83-1.16,1.71-1.17v0.9
			c-1.19,0.04-1.69,0.74-1.69,1.88v2.6h-0.86V17.95z"/>
		<path d="M146.04,21.44v-7.59h0.86v7.59H146.04z"/>
		<path d="M152.72,18.71c0,1.53-0.67,2.82-2.36,2.82c-1.64,0-2.29-1.34-2.29-2.79c0-1.39,0.76-2.68,2.36-2.68
			C151.92,16.05,152.72,17.19,152.72,18.71z M148.96,18.72c0,1.22,0.5,2.08,1.45,2.08c0.99,0,1.42-0.85,1.42-2.09
			c0-1.15-0.48-1.94-1.44-1.94C149.45,16.77,148.96,17.57,148.96,18.72z"/>
		<path d="M158.78,13.85c-0.84,1.11-1.54,2.69-1.54,4.59c0,1.73,0.54,3.35,1.54,4.72h-0.86c-0.74-0.99-1.48-2.67-1.48-4.73
			c0-2,0.77-3.63,1.48-4.58H158.78z"/>
		<path d="M160,14.24h2.42c1.34,0,2.33,0.69,2.33,1.99c0,1.41-0.99,2.11-2.45,2.11h-1.4v3.09H160V14.24z M160.89,17.6h1.36
			c0.93,0,1.56-0.32,1.56-1.35c0-0.87-0.63-1.27-1.55-1.27h-1.37V17.6z"/>
		<path d="M171.73,17.79c0,2.07-0.96,3.75-3.07,3.75c-1.99,0-2.99-1.58-2.99-3.74c0-1.88,0.98-3.66,3.07-3.66
			C170.73,14.14,171.73,15.72,171.73,17.79z M166.6,17.78c0,1.69,0.68,3,2.11,3c1.48,0,2.11-1.3,2.11-2.99
			c0-1.64-0.64-2.91-2.1-2.91C167.25,14.89,166.6,16.19,166.6,17.78z"/>
		<path d="M172.55,23.16c0.84-1.11,1.54-2.69,1.54-4.59c0-1.73-0.54-3.35-1.54-4.72h0.86c0.74,0.99,1.48,2.67,1.48,4.73
			c0,2-0.77,3.63-1.48,4.58H172.55z"/>
		<path d="M16.25,23.81h2.42c1.34,0,2.33,0.69,2.33,1.99c0,1.41-0.99,2.11-2.45,2.11h-1.4v3.09h-0.9V23.81z M17.15,27.17h1.36
			c0.93,0,1.56-0.32,1.56-1.35c0-0.87-0.63-1.27-1.55-1.27h-1.37V27.17z"/>
		<path d="M20.86,31.01v-1.43h0.85v1.43H20.86z"/>
		<path d="M26.42,23.81v7.19h-0.89v-7.19H26.42z"/>
		<path d="M29.8,31.01l-2.38-7.19h0.96l1.13,3.54c0.32,1,0.68,2.13,0.84,2.79h0.02c0.15-0.59,0.55-1.76,0.88-2.78l1.17-3.55h0.93
			l-2.47,7.19H29.8z"/>
		<path d="M34.54,28.82l-0.7,2.19h-0.89c0.5-1.5,1.78-5.49,2.34-7.19h1.13l2.44,7.19H37.9l-0.72-2.19H34.54z M36.96,28.05
			c-0.61-1.85-0.99-2.92-1.13-3.5h-0.02c-0.2,0.85-0.57,1.96-1.07,3.5H36.96z"/>
		<path d="M40.01,27.21v-1.43h0.85v1.43H40.01z M40.01,31.01v-1.43h0.85v1.43H40.01z"/>
		<path d="M49.29,27.36c0,1.88-0.42,3.75-2.24,3.75c-1.89,0-2.26-1.94-2.26-3.73c0-1.8,0.6-3.44,2.27-3.44
			C48.79,23.94,49.29,25.52,49.29,27.36z M45.68,27.36c0,1.7,0.3,3.04,1.38,3.04c1.12,0,1.35-1.34,1.35-3.02
			c0-1.47-0.3-2.73-1.34-2.73C45.95,24.64,45.68,25.91,45.68,27.36z"/>
		<path d="M50.17,31.01v-0.05c0-0.74,0.4-1.82,1.97-3.11c1-0.83,1.4-1.16,1.4-1.96c0-0.63-0.34-1.22-1.18-1.22
			c-0.85,0-1.21,0.54-1.31,1.38h-0.83c0.07-1.11,0.68-2.1,2.17-2.1c1.38,0,2.03,0.89,2.03,1.92c0,1.02-0.49,1.53-1.71,2.51
			c-0.84,0.69-1.33,1.34-1.51,1.88h3.43l-0.12,0.75H50.17z"/>
		<path d="M56.41,29.55c0.15,0.56,0.54,0.85,1.16,0.85c1.24,0,1.35-1.65,1.4-2.73c-0.3,0.53-0.86,0.73-1.53,0.73
			c-1.14,0-2.03-0.83-2.03-2.18c0-1.25,0.8-2.29,2.18-2.29c1.68,0,2.25,1.28,2.25,3.17c0,2.28-0.48,4.01-2.34,4.01
			c-1.3,0-1.83-0.77-1.94-1.56H56.41z M56.3,26.16c0,0.98,0.55,1.52,1.31,1.52c0.85,0,1.32-0.51,1.32-1.3
			c0-0.88-0.32-1.75-1.34-1.75C56.86,24.63,56.3,25.16,56.3,26.16z"/>
		<path d="M64.8,24.03v0.7c-1.22,1.7-2.25,4.1-2.71,6.28h-0.91c0.47-2.3,1.68-4.78,2.72-6.23h-3.44v-0.75H64.8z"/>
		<path d="M70.03,27.36c0,1.88-0.42,3.75-2.24,3.75c-1.89,0-2.26-1.94-2.26-3.73c0-1.8,0.6-3.44,2.27-3.44
			C69.54,23.94,70.03,25.52,70.03,27.36z M66.42,27.36c0,1.7,0.3,3.04,1.38,3.04c1.12,0,1.35-1.34,1.35-3.02
			c0-1.47-0.3-2.73-1.34-2.73C66.7,24.64,66.42,25.91,66.42,27.36z"/>
		<path d="M71.03,29.02c0-1.02,0.66-1.54,1.17-1.75c-0.55-0.27-0.91-0.8-0.91-1.5c0-1.07,0.74-1.84,2.05-1.84
			c1.17,0,1.97,0.7,1.97,1.8c0,0.78-0.39,1.27-0.92,1.5c0.58,0.21,1.15,0.79,1.15,1.76c0,1.32-0.89,2.11-2.29,2.11
			C71.85,31.11,71.03,30.21,71.03,29.02z M74.65,29.02c0-0.91-0.55-1.39-1.37-1.39c-0.99,0-1.38,0.63-1.38,1.37
			c0,0.77,0.49,1.41,1.39,1.41C74.15,30.41,74.65,29.86,74.65,29.02z M72.13,25.77c0,0.67,0.37,1.15,1.18,1.15
			c0.7,0,1.16-0.37,1.16-1.13c0-0.74-0.48-1.17-1.17-1.17C72.5,24.63,72.13,25.11,72.13,25.77z"/>
		<path d="M76.3,31.01v-0.05c0-0.74,0.4-1.82,1.97-3.11c1-0.83,1.4-1.16,1.4-1.96c0-0.63-0.34-1.22-1.18-1.22
			c-0.85,0-1.21,0.54-1.31,1.38h-0.83c0.07-1.11,0.68-2.1,2.17-2.1c1.38,0,2.03,0.89,2.03,1.92c0,1.02-0.49,1.53-1.71,2.51
			c-0.84,0.69-1.33,1.34-1.51,1.88h3.43l-0.12,0.75H76.3z"/>
		<path d="M86.07,27.36c0,1.88-0.42,3.75-2.24,3.75c-1.89,0-2.26-1.94-2.26-3.73c0-1.8,0.6-3.44,2.27-3.44
			C85.57,23.94,86.07,25.52,86.07,27.36z M82.46,27.36c0,1.7,0.3,3.04,1.38,3.04c1.12,0,1.35-1.34,1.35-3.02
			c0-1.47-0.3-2.73-1.34-2.73C82.73,24.64,82.46,25.91,82.46,27.36z"/>
		<path d="M86.95,31.01v-0.05c0-0.74,0.4-1.82,1.97-3.11c1-0.83,1.4-1.16,1.4-1.96c0-0.63-0.34-1.22-1.18-1.22
			c-0.85,0-1.21,0.54-1.31,1.38h-0.83c0.07-1.11,0.68-2.1,2.17-2.1c1.38,0,2.03,0.89,2.03,1.92c0,1.02-0.49,1.53-1.71,2.51
			c-0.84,0.69-1.33,1.34-1.51,1.88h3.43l-0.12,0.75H86.95z"/>
		<path d="M93.37,31.01v-5.95c-0.25,0.16-0.92,0.36-1.21,0.41v-0.68c0.53-0.12,1.11-0.43,1.45-0.77h0.61v7H93.37z"/>
		<path d="M96.63,29.55c0.15,0.56,0.54,0.85,1.16,0.85c1.24,0,1.35-1.65,1.4-2.73c-0.3,0.53-0.86,0.73-1.53,0.73
			c-1.14,0-2.03-0.83-2.03-2.18c0-1.25,0.8-2.29,2.18-2.29c1.68,0,2.25,1.28,2.25,3.17c0,2.28-0.48,4.01-2.34,4.01
			c-1.3,0-1.83-0.77-1.94-1.56H96.63z M96.51,26.16c0,0.98,0.55,1.52,1.31,1.52c0.85,0,1.32-0.51,1.32-1.3
			c0-0.88-0.32-1.75-1.34-1.75C97.07,24.63,96.51,25.16,96.51,26.16z"/>
		<path d="M106.15,27.95v0.77h-2.53v-0.77H106.15z"/>
		<path d="M110.49,28.97c0.14,0.93,0.77,1.38,1.63,1.38c0.86,0,1.43-0.44,1.43-1.24c0-0.8-0.38-1.13-1.64-1.53
			c-1.51-0.46-2.08-0.96-2.08-1.99c0-1.14,0.86-1.88,2.2-1.88c1.55,0,2.21,0.91,2.28,1.93h-0.89c-0.11-0.73-0.53-1.2-1.42-1.2
			c-0.84,0-1.26,0.41-1.26,1.07c0,0.68,0.37,0.94,1.53,1.29c1.77,0.54,2.2,1.22,2.2,2.21c0,1.2-0.83,2.07-2.4,2.07
			c-1.49,0-2.37-0.8-2.48-2.11H110.49z"/>
		<path d="M115.77,23.81h2.35c1.81,0,3.21,1.16,3.21,3.42c0,2.35-1.22,3.77-3.33,3.77h-2.23V23.81z M116.67,30.27h1.3
			c1.64,0,2.44-1.12,2.44-3.01c0-1.75-0.97-2.71-2.43-2.71h-1.31V30.27z"/>
		<path d="M123.66,23.81v7.19h-0.89v-7.19H123.66z"/>
		<path d="M125.26,27.21v-1.43h0.85v1.43H125.26z M125.26,31.01v-1.43h0.85v1.43H125.26z"/>
		<path d="M130.36,23.81h0.88v3.62c0.8-0.91,2.26-2.53,3.2-3.62h1.08l-2.69,2.98l2.85,4.22h-1.08l-2.39-3.62l-0.97,0.99v2.63h-0.88
			V23.81z"/>
		<path d="M137.39,27.73v3.27h-0.89v-7.19h2.55c1.27,0,2.16,0.63,2.16,1.85c0,1.04-0.62,1.5-1.18,1.68
			c0.75,0.24,1.07,0.83,1.07,1.81v0.13c0,0.67,0.01,1.29,0.1,1.72h-0.88c-0.1-0.29-0.12-0.95-0.12-1.71v-0.14
			c0-1.02-0.37-1.42-1.55-1.42H137.39z M137.39,26.99h1.33c0.94,0,1.58-0.27,1.58-1.28c0-0.77-0.52-1.17-1.37-1.17h-1.54V26.99z"/>
		<path d="M143.6,27.73v3.27h-0.89v-7.19h2.55c1.27,0,2.16,0.63,2.16,1.85c0,1.04-0.62,1.5-1.18,1.68c0.75,0.24,1.07,0.83,1.07,1.81
			v0.13c0,0.67,0.01,1.29,0.1,1.72h-0.88c-0.1-0.29-0.12-0.95-0.12-1.71v-0.14c0-1.02-0.37-1.42-1.55-1.42H143.6z M143.6,26.99h1.33
			c0.94,0,1.58-0.27,1.58-1.28c0-0.77-0.52-1.17-1.37-1.17h-1.54V26.99z"/>
		<path d="M148.92,23.81h0.89v3.03h3.36v-3.03h0.9v7.19h-0.9v-3.4h-3.36v3.4h-0.89V23.81z"/>
		<path d="M158.91,25.45c-0.13-0.43-0.4-0.81-1.07-0.81c-1.28,0-1.49,1.65-1.5,2.65c0.26-0.44,0.79-0.87,1.64-0.87
			c1.16,0,1.98,0.82,1.98,2.23c0,1.35-0.74,2.46-2.18,2.46c-1.8,0-2.31-1.42-2.31-3.36c0-1.94,0.53-3.81,2.41-3.81
			c1.24,0,1.76,0.74,1.89,1.51H158.91z M159.08,28.68c0-0.87-0.41-1.54-1.28-1.54c-1,0-1.4,0.71-1.4,1.42
			c0,0.88,0.33,1.83,1.37,1.83C158.6,30.4,159.08,29.79,159.08,28.68z"/>
		<path d="M161.25,23.81h2.51c1.3,0,2.1,0.66,2.1,1.78c0,0.95-0.59,1.36-1.03,1.5c0.5,0.18,1.26,0.64,1.26,1.79
			c0,1.38-1,2.13-2.42,2.13h-2.42V23.81z M163.55,26.78c1.02,0,1.42-0.41,1.42-1.12c0-0.66-0.43-1.13-1.35-1.13h-1.5v2.25H163.55z
			 M162.13,30.3h1.47c0.91,0,1.59-0.43,1.59-1.4c0-0.87-0.55-1.39-1.68-1.39h-1.38V30.3z"/>
		<path d="M168,29.55c0.15,0.56,0.54,0.85,1.16,0.85c1.24,0,1.35-1.65,1.4-2.73c-0.3,0.53-0.86,0.73-1.53,0.73
			c-1.14,0-2.03-0.83-2.03-2.18c0-1.25,0.8-2.29,2.18-2.29c1.68,0,2.25,1.28,2.25,3.17c0,2.28-0.48,4.01-2.34,4.01
			c-1.3,0-1.83-0.77-1.94-1.56H168z M167.89,26.16c0,0.98,0.55,1.52,1.31,1.52c0.85,0,1.32-0.51,1.32-1.3
			c0-0.88-0.32-1.75-1.34-1.75C168.45,24.63,167.89,25.16,167.89,26.16z"/>
		<path d="M47.66,38.48c-0.21,1.14-0.96,2.2-2.65,2.2c-2.11,0-2.91-1.6-2.91-3.75c0-1.89,0.91-3.65,2.95-3.65
			c1.65,0,2.43,1.01,2.57,2.22h-0.9c-0.18-0.84-0.63-1.46-1.71-1.46c-1.42,0-2,1.38-2,2.89c0,1.51,0.46,3,2,3
			c1.07,0,1.51-0.63,1.74-1.44H47.66z"/>
		<path d="M48.89,33.38h4.21v0.76h-3.33v2.38h3.13v0.76h-3.13v3.29h-0.88V33.38z"/>
		<path d="M54.28,36.78v-1.43h0.85v1.43H54.28z M54.28,40.58v-1.43h0.85v1.43H54.28z"/>
		<path d="M61.1,38.44c0,1.22-0.3,2.23-1.78,2.23c-0.28,0-0.53-0.03-0.69-0.06v-0.74c0.17,0.03,0.39,0.04,0.6,0.04
			c0.83,0,0.97-0.61,0.97-1.43v-5.1h0.89V38.44z"/>
		<path d="M62.8,33.38h2.51c1.3,0,2.1,0.66,2.1,1.78c0,0.95-0.59,1.36-1.03,1.5c0.5,0.18,1.26,0.64,1.26,1.79
			c0,1.38-1,2.13-2.42,2.13H62.8V33.38z M65.11,36.35c1.02,0,1.42-0.41,1.42-1.12c0-0.66-0.43-1.13-1.35-1.13h-1.5v2.25H65.11z
			 M63.68,39.86h1.47c0.91,0,1.59-0.43,1.59-1.4c0-0.87-0.55-1.39-1.68-1.39h-1.38V39.86z"/>
		<path d="M69.87,37.3v3.27h-0.89v-7.19h2.55c1.27,0,2.16,0.63,2.16,1.85c0,1.04-0.62,1.5-1.18,1.68c0.75,0.24,1.07,0.83,1.07,1.81
			v0.13c0,0.67,0.01,1.29,0.1,1.72H72.8c-0.1-0.29-0.12-0.95-0.12-1.71v-0.14c0-1.02-0.37-1.42-1.55-1.42H69.87z M69.87,36.56h1.33
			c0.94,0,1.58-0.27,1.58-1.28c0-0.77-0.52-1.17-1.37-1.17h-1.54V36.56z"/>
		<path d="M77.07,38.44c0,1.22-0.3,2.23-1.78,2.23c-0.28,0-0.53-0.03-0.69-0.06v-0.74c0.17,0.03,0.39,0.04,0.6,0.04
			c0.83,0,0.97-0.61,0.97-1.43v-5.1h0.89V38.44z"/>
		<path d="M80.48,40.57l-2.38-7.19h0.96l1.13,3.54c0.32,1,0.68,2.13,0.84,2.79h0.02c0.15-0.59,0.55-1.76,0.88-2.78l1.17-3.55h0.93
			l-2.47,7.19H80.48z"/>
		<path d="M85,33.38h2.35c1.81,0,3.21,1.16,3.21,3.42c0,2.35-1.22,3.77-3.33,3.77H85V33.38z M85.89,39.84h1.3
			c1.64,0,2.44-1.12,2.44-3.01c0-1.75-0.97-2.71-2.43-2.71h-1.31V39.84z"/>
		<path d="M91.51,38.59c0-1.02,0.66-1.54,1.17-1.75c-0.55-0.27-0.91-0.8-0.91-1.5c0-1.07,0.74-1.84,2.05-1.84
			c1.17,0,1.97,0.7,1.97,1.8c0,0.78-0.39,1.27-0.92,1.5c0.58,0.21,1.15,0.79,1.15,1.76c0,1.32-0.89,2.11-2.29,2.11
			C92.33,40.68,91.51,39.78,91.51,38.59z M95.13,38.59c0-0.91-0.55-1.39-1.37-1.39c-0.99,0-1.38,0.63-1.38,1.37
			c0,0.77,0.49,1.41,1.39,1.41C94.63,39.98,95.13,39.42,95.13,38.59z M92.61,35.34c0,0.67,0.37,1.15,1.18,1.15
			c0.7,0,1.16-0.37,1.16-1.13c0-0.74-0.48-1.17-1.17-1.17C92.98,34.2,92.61,34.68,92.61,35.34z"/>
		<path d="M100.44,35.02c-0.13-0.43-0.4-0.81-1.07-0.81c-1.28,0-1.49,1.65-1.5,2.65c0.26-0.44,0.79-0.87,1.64-0.87
			c1.16,0,1.98,0.82,1.98,2.23c0,1.35-0.74,2.46-2.18,2.46c-1.8,0-2.31-1.42-2.31-3.36c0-1.94,0.53-3.81,2.41-3.81
			c1.24,0,1.76,0.74,1.89,1.51H100.44z M100.6,38.25c0-0.87-0.41-1.54-1.28-1.54c-1,0-1.4,0.71-1.4,1.42c0,0.88,0.33,1.83,1.37,1.83
			C100.12,39.97,100.6,39.36,100.6,38.25z"/>
		<path d="M102.78,33.38h2.51c1.3,0,2.1,0.66,2.1,1.78c0,0.95-0.59,1.36-1.03,1.5c0.5,0.18,1.26,0.64,1.26,1.79
			c0,1.38-1,2.13-2.42,2.13h-2.42V33.38z M105.08,36.35c1.02,0,1.42-0.41,1.42-1.12c0-0.66-0.43-1.13-1.35-1.13h-1.5v2.25H105.08z
			 M103.65,39.86h1.47c0.91,0,1.59-0.43,1.59-1.4c0-0.87-0.55-1.39-1.68-1.39h-1.38V39.86z"/>
		<path d="M113.12,36.93c0,1.88-0.42,3.75-2.24,3.75c-1.89,0-2.26-1.94-2.26-3.73c0-1.8,0.6-3.44,2.27-3.44
			C112.62,33.51,113.12,35.09,113.12,36.93z M109.5,36.93c0,1.7,0.3,3.04,1.38,3.04c1.12,0,1.35-1.34,1.35-3.02
			c0-1.47-0.3-2.73-1.34-2.73C109.78,34.21,109.5,35.48,109.5,36.93z"/>
		<path d="M114.23,35.37c0.12-0.95,0.7-1.86,2.1-1.86c1.37,0,1.99,0.81,1.99,1.78c0,0.83-0.51,1.29-0.93,1.45v0.02
			c0.62,0.21,1.22,0.74,1.22,1.75c0,1.08-0.64,2.16-2.32,2.16c-1.5,0-2.13-0.93-2.22-1.9h0.85c0.14,0.65,0.54,1.18,1.41,1.18
			c1.06,0,1.38-0.71,1.38-1.43c0-1.02-0.65-1.36-1.53-1.36h-0.47v-0.7h0.43c0.86,0,1.3-0.34,1.3-1.14c0-0.72-0.44-1.12-1.15-1.12
			c-0.74,0-1.13,0.42-1.27,1.16H114.23z"/>
		<path d="M119.33,39.89l3.98-5.74h-3.77v-0.76h4.81v0.76l-3.93,5.67h4.08l-0.12,0.76h-5.04V39.89z"/>
		<path d="M125.09,40.57v-0.05c0-0.74,0.4-1.82,1.97-3.11c1-0.83,1.4-1.16,1.4-1.96c0-0.63-0.34-1.22-1.18-1.22
			c-0.85,0-1.21,0.54-1.31,1.38h-0.83c0.07-1.11,0.68-2.1,2.17-2.1c1.38,0,2.03,0.89,2.03,1.92c0,1.02-0.49,1.53-1.71,2.51
			c-0.84,0.69-1.33,1.34-1.51,1.88h3.43l-0.12,0.75H125.09z"/>
		<path d="M134.86,36.93c0,1.88-0.42,3.75-2.24,3.75c-1.89,0-2.26-1.94-2.26-3.73c0-1.8,0.6-3.44,2.27-3.44
			C134.37,33.51,134.86,35.09,134.86,36.93z M131.25,36.93c0,1.7,0.3,3.04,1.38,3.04c1.12,0,1.35-1.34,1.35-3.02
			c0-1.47-0.3-2.73-1.34-2.73C131.52,34.21,131.25,35.48,131.25,36.93z"/>
		<path d="M140.42,36.93c0,1.88-0.42,3.75-2.24,3.75c-1.89,0-2.26-1.94-2.26-3.73c0-1.8,0.6-3.44,2.27-3.44
			C139.92,33.51,140.42,35.09,140.42,36.93z M136.81,36.93c0,1.7,0.3,3.04,1.38,3.04c1.12,0,1.35-1.34,1.35-3.02
			c0-1.47-0.3-2.73-1.34-2.73C137.08,34.21,136.81,35.48,136.81,36.93z"/>
		<path d="M141.82,33.38h0.89v6.43h3.46l-0.13,0.76h-4.23V33.38z"/>
		<path d="M62.87,48.05c-0.21,1.14-0.96,2.2-2.65,2.2c-2.11,0-2.91-1.6-2.91-3.75c0-1.89,0.91-3.65,2.95-3.65
			c1.65,0,2.43,1.01,2.57,2.22h-0.9c-0.18-0.84-0.63-1.46-1.71-1.46c-1.42,0-2,1.38-2,2.89c0,1.51,0.46,3,2,3
			c1.07,0,1.51-0.63,1.74-1.44H62.87z"/>
		<path d="M64.64,47.67c-0.01,1.06,0.44,1.86,1.38,1.86c0.85,0,1.11-0.6,1.21-0.87h0.85c-0.17,0.66-0.69,1.59-2.1,1.59
			c-1.65,0-2.21-1.3-2.21-2.76c0-1.3,0.64-2.73,2.26-2.73c1.66,0,2.14,1.29,2.14,2.51c0,0.03,0,0.37-0.01,0.4H64.64z M67.31,47.04
			c-0.03-0.9-0.39-1.58-1.3-1.58c-1.05,0-1.29,0.95-1.34,1.58H67.31z"/>
		<path d="M69.33,50.14v-7.59h0.86v7.59H69.33z"/>
		<path d="M71.72,50.14v-7.59h0.86v7.59H71.72z"/>
		<path d="M74.18,46.35v-1.43h0.85v1.43H74.18z M74.18,50.15v-1.43h0.85v1.43H74.18z"/>
		<path d="M78.94,44.94c0.12-0.95,0.7-1.86,2.1-1.86c1.37,0,1.99,0.81,1.99,1.78c0,0.83-0.51,1.29-0.93,1.45v0.02
			c0.62,0.21,1.22,0.74,1.22,1.75c0,1.08-0.64,2.16-2.32,2.16c-1.5,0-2.13-0.93-2.22-1.9h0.85c0.14,0.65,0.54,1.18,1.41,1.18
			c1.06,0,1.38-0.71,1.38-1.43c0-1.02-0.65-1.36-1.53-1.36h-0.47v-0.7h0.43c0.86,0,1.3-0.34,1.3-1.14c0-0.72-0.44-1.12-1.15-1.12
			c-0.74,0-1.13,0.42-1.27,1.16H78.94z"/>
		<path d="M88.24,43.17v0.7c-1.22,1.7-2.25,4.1-2.71,6.28h-0.91c0.47-2.3,1.68-4.78,2.72-6.23h-3.44v-0.75H88.24z"/>
		<path d="M90.38,50.14v-5.95c-0.25,0.16-0.92,0.36-1.21,0.41v-0.68c0.53-0.12,1.11-0.43,1.45-0.77h0.61v7H90.38z"/>
		<path d="M95.13,47.09v0.77H92.6v-0.77H95.13z"/>
		<path d="M96.13,44.94c0.12-0.95,0.7-1.86,2.1-1.86c1.37,0,1.99,0.81,1.99,1.78c0,0.83-0.51,1.29-0.93,1.45v0.02
			c0.62,0.21,1.22,0.74,1.22,1.75c0,1.08-0.64,2.16-2.32,2.16c-1.5,0-2.13-0.93-2.22-1.9h0.85c0.14,0.65,0.54,1.18,1.41,1.18
			c1.06,0,1.38-0.71,1.38-1.43c0-1.02-0.65-1.36-1.53-1.36h-0.47v-0.7h0.43c0.86,0,1.3-0.34,1.3-1.14c0-0.72-0.44-1.12-1.15-1.12
			c-0.74,0-1.13,0.42-1.27,1.16H96.13z"/>
		<path d="M105.64,43.92h-2.83c-0.06,0.54-0.2,1.73-0.27,2.16c0.26-0.31,0.69-0.56,1.39-0.56c1.3,0,2.04,0.91,2.04,2.27
			c0,1.36-0.7,2.46-2.29,2.46c-1.25,0-2.05-0.64-2.2-1.84h0.86c0.13,0.63,0.49,1.13,1.35,1.13c0.99,0,1.38-0.71,1.38-1.7
			c0-0.95-0.42-1.58-1.33-1.58c-0.74,0-1.12,0.35-1.33,0.85l-0.78-0.14c0.14-0.82,0.37-2.66,0.48-3.78h3.65L105.64,43.92z"/>
		<path d="M110.97,43.17v0.7c-1.22,1.7-2.25,4.1-2.71,6.28h-0.91c0.47-2.3,1.68-4.78,2.72-6.23h-3.44v-0.75H110.97z"/>
		<path d="M111.7,50.14v-0.05c0-0.74,0.4-1.82,1.97-3.11c1-0.83,1.4-1.16,1.4-1.96c0-0.63-0.34-1.22-1.18-1.22
			c-0.85,0-1.21,0.54-1.31,1.38h-0.83c0.07-1.11,0.68-2.1,2.17-2.1c1.38,0,2.03,0.89,2.03,1.92c0,1.02-0.49,1.53-1.71,2.51
			c-0.84,0.69-1.33,1.34-1.51,1.88h3.43l-0.12,0.75H111.7z"/>
		<path d="M120.37,44.59c-0.13-0.43-0.4-0.81-1.07-0.81c-1.28,0-1.49,1.65-1.5,2.65c0.26-0.44,0.79-0.87,1.64-0.87
			c1.16,0,1.98,0.82,1.98,2.23c0,1.35-0.74,2.46-2.18,2.46c-1.8,0-2.31-1.42-2.31-3.36c0-1.94,0.53-3.81,2.41-3.81
			c1.24,0,1.76,0.74,1.89,1.51H120.37z M120.53,47.82c0-0.87-0.41-1.54-1.28-1.54c-1,0-1.4,0.71-1.4,1.42
			c0,0.88,0.33,1.83,1.37,1.83C120.05,49.54,120.53,48.93,120.53,47.82z"/>
		<path d="M123.31,50.14v-5.95c-0.25,0.16-0.92,0.36-1.21,0.41v-0.68c0.53-0.12,1.11-0.43,1.45-0.77h0.61v7H123.31z"/>
		<path d="M126.57,48.69c0.15,0.56,0.54,0.85,1.16,0.85c1.24,0,1.35-1.65,1.4-2.73c-0.3,0.53-0.86,0.73-1.53,0.73
			c-1.14,0-2.03-0.83-2.03-2.18c0-1.25,0.8-2.29,2.18-2.29c1.68,0,2.25,1.28,2.25,3.17c0,2.28-0.48,4.01-2.34,4.01
			c-1.3,0-1.83-0.77-1.94-1.56H126.57z M126.46,45.3c0,0.98,0.55,1.52,1.31,1.52c0.85,0,1.32-0.51,1.32-1.3
			c0-0.88-0.32-1.75-1.34-1.75C127.02,43.76,126.46,44.3,126.46,45.3z"/>
		<path d="M51.96,59.71v-7.19h1.18c2.87,5.11,3.26,5.79,3.39,6.11h0.01c-0.07-0.96-0.08-2.12-0.08-3.28v-2.83h0.85v7.19h-1.1
			c-3.07-5.53-3.3-5.98-3.45-6.28h-0.01c0.05,0.93,0.04,2.14,0.04,3.43v2.86H51.96z"/>
		<path d="M61.15,54.02c0,0.9-0.64,1.42-1.39,1.42c-0.82,0-1.36-0.59-1.36-1.37c0-0.82,0.58-1.42,1.38-1.42
			C60.64,52.65,61.15,53.26,61.15,54.02z M59,54.05c0,0.49,0.29,0.85,0.76,0.85c0.5,0,0.77-0.34,0.77-0.86
			c0-0.42-0.24-0.85-0.77-0.85C59.26,53.18,59,53.55,59,54.05z"/>
		<path d="M65.7,56.44v3.27h-0.89v-7.19h2.55c1.27,0,2.16,0.63,2.16,1.85c0,1.04-0.62,1.5-1.18,1.68c0.75,0.24,1.07,0.83,1.07,1.81
			V58c0,0.67,0.01,1.29,0.1,1.72h-0.88c-0.1-0.29-0.12-0.95-0.12-1.71v-0.14c0-1.02-0.37-1.42-1.55-1.42H65.7z M65.7,55.7h1.33
			c0.94,0,1.58-0.27,1.58-1.28c0-0.77-0.52-1.17-1.37-1.17H65.7V55.7z"/>
		<path d="M75.14,56.32H71.9v2.63h3.56l-0.12,0.76h-4.31v-7.19h4.26v0.76H71.9v2.27h3.23V56.32z"/>
		<path d="M77.76,57.52l-0.7,2.19h-0.89c0.5-1.5,1.78-5.49,2.34-7.19h1.13l2.44,7.19h-0.96l-0.72-2.19H77.76z M80.19,56.75
			c-0.61-1.85-0.99-2.92-1.13-3.5h-0.02c-0.2,0.85-0.57,1.96-1.07,3.5H80.19z"/>
		<path d="M83.24,55.92v-1.43h0.85v1.43H83.24z M83.24,59.72v-1.43h0.85v1.43H83.24z"/>
		<path d="M88.34,52.52h2.42c1.34,0,2.33,0.69,2.33,1.99c0,1.41-0.99,2.11-2.45,2.11h-1.4v3.09h-0.9V52.52z M89.24,55.88h1.36
			c0.93,0,1.56-0.32,1.56-1.35c0-0.87-0.63-1.27-1.55-1.27h-1.37V55.88z"/>
		<path d="M100.08,56.07c0,2.07-0.96,3.75-3.07,3.75c-1.99,0-2.99-1.58-2.99-3.74c0-1.88,0.98-3.66,3.07-3.66
			C99.08,52.42,100.08,54,100.08,56.07z M94.95,56.06c0,1.69,0.68,3,2.11,3c1.48,0,2.11-1.3,2.11-2.99c0-1.64-0.64-2.91-2.1-2.91
			C95.6,53.17,94.95,54.47,94.95,56.06z"/>
		<path d="M103.6,56.66v0.77h-2.53v-0.77H103.6z"/>
		<path d="M108.02,54.16c-0.13-0.43-0.4-0.81-1.07-0.81c-1.28,0-1.49,1.65-1.5,2.65c0.26-0.44,0.79-0.87,1.64-0.87
			c1.16,0,1.98,0.82,1.98,2.23c0,1.35-0.74,2.46-2.18,2.46c-1.8,0-2.31-1.42-2.31-3.36c0-1.94,0.53-3.81,2.41-3.81
			c1.24,0,1.76,0.74,1.89,1.51H108.02z M108.19,57.39c0-0.87-0.41-1.54-1.28-1.54c-1,0-1.4,0.71-1.4,1.42
			c0,0.88,0.33,1.83,1.37,1.83C107.71,59.11,108.19,58.5,108.19,57.39z"/>
		<path d="M114.59,56.07c0,1.88-0.42,3.75-2.24,3.75c-1.89,0-2.26-1.94-2.26-3.73c0-1.8,0.6-3.44,2.27-3.44
			C114.1,52.65,114.59,54.23,114.59,56.07z M110.98,56.07c0,1.7,0.3,3.04,1.38,3.04c1.12,0,1.35-1.34,1.35-3.02
			c0-1.47-0.3-2.73-1.34-2.73C111.26,53.35,110.98,54.62,110.98,56.07z"/>
		<path d="M119.67,52.74v0.7c-1.22,1.7-2.25,4.1-2.71,6.28h-0.91c0.47-2.3,1.68-4.78,2.72-6.23h-3.44v-0.75H119.67z"/>
		<path d="M124.9,56.07c0,1.88-0.42,3.75-2.24,3.75c-1.89,0-2.26-1.94-2.26-3.73c0-1.8,0.6-3.44,2.27-3.44
			C124.4,52.65,124.9,54.23,124.9,56.07z M121.29,56.07c0,1.7,0.3,3.04,1.38,3.04c1.12,0,1.35-1.34,1.35-3.02
			c0-1.47-0.3-2.73-1.34-2.73C121.56,53.35,121.29,54.62,121.29,56.07z"/>
		<path d="M126.89,58.26c0.15,0.56,0.54,0.85,1.16,0.85c1.24,0,1.35-1.65,1.4-2.73c-0.3,0.53-0.86,0.73-1.53,0.73
			c-1.14,0-2.03-0.83-2.03-2.18c0-1.25,0.8-2.29,2.18-2.29c1.68,0,2.25,1.28,2.25,3.17c0,2.28-0.48,4.01-2.34,4.01
			c-1.3,0-1.83-0.77-1.94-1.56H126.89z M126.77,54.87c0,0.98,0.55,1.52,1.31,1.52c0.85,0,1.32-0.51,1.32-1.3
			c0-0.88-0.32-1.75-1.34-1.75C127.34,53.33,126.77,53.87,126.77,54.87z"/>
		<path d="M134.41,59.71v-1.85h-3.13v-0.8l2.86-4.34h1.1v4.41h0.81l-0.09,0.73h-0.72v1.85H134.41z M134.41,55.16
			c0-0.57-0.01-1.29,0.02-1.72c-0.42,0.75-1.68,2.67-2.32,3.7h2.3V55.16z"/>
		<path d="M32.83,66.22c0-1.33,0.01-2.7,0.05-3.46h-0.03c-0.34,1.29-1.44,4.46-2.18,6.53h-0.83c-0.56-1.72-1.69-5.17-2.04-6.54
			h-0.04c0.06,0.83,0.08,2.44,0.08,3.67v2.87h-0.84v-7.19h1.34c0.75,2.13,1.71,5.07,1.96,6.05h0.02c0.14-0.69,1.3-3.91,2.08-6.05
			h1.31v7.19h-0.88V66.22z"/>
		<path d="M38.95,68.11c0,0.36,0.03,0.89,0.08,1.17h-0.79c-0.03-0.18-0.07-0.47-0.08-0.82c-0.2,0.53-0.74,0.91-1.6,0.91
			c-1.29,0-1.69-0.87-1.69-1.6c0-0.8,0.51-1.68,2.4-1.68c0.32,0,0.56,0,0.81,0v-0.51c0-0.5-0.14-1.02-1.04-1.02
			c-0.77,0-1.04,0.35-1.12,0.94H35.1c0.08-0.88,0.59-1.61,2-1.61c1.1,0,1.86,0.44,1.86,1.65V68.11z M38.13,66.72
			c-0.21,0-0.51,0-0.84,0c-1.28,0-1.52,0.52-1.52,1c0,0.51,0.31,0.94,0.98,0.94c1.04,0,1.38-0.7,1.38-1.83V66.72z"/>
		<path d="M40.48,61.7h0.86v1.12h-0.86V61.7z M40.48,64h0.86v5.28h-0.86V64z"/>
		<path d="M42.86,69.28V61.7h0.86v7.59H42.86z"/>
		<path d="M45.32,65.49v-1.43h0.85v1.43H45.32z M45.32,69.29v-1.43h0.85v1.43H45.32z"/>
		<path d="M48.62,64v5.42c0,1.17-0.13,2.04-1.37,2.04c-0.14,0-0.26-0.01-0.34-0.02v-0.75c0.09,0.01,0.22,0.01,0.27,0.01
			c0.55-0.01,0.57-0.45,0.57-1.08V64H48.62z M47.76,62.82V61.7h0.87v1.12H47.76z"/>
		<path d="M51.01,64v5.42c0,1.17-0.13,2.04-1.37,2.04c-0.14,0-0.26-0.01-0.34-0.02v-0.75c0.09,0.01,0.22,0.01,0.27,0.01
			c0.55-0.01,0.57-0.45,0.57-1.08V64H51.01z M50.15,62.82V61.7h0.87v1.12H50.15z"/>
		<path d="M52.53,69.28V61.7h0.86v7.59H52.53z"/>
		<path d="M54.61,69.29v-1.43h0.85v1.43H54.61z"/>
		<path d="M57.53,64v5.42c0,1.17-0.13,2.04-1.37,2.04c-0.14,0-0.26-0.01-0.34-0.02v-0.75c0.09,0.01,0.22,0.01,0.27,0.01
			c0.55-0.01,0.57-0.45,0.57-1.08V64H57.53z M56.67,62.82V61.7h0.87v1.12H56.67z"/>
		<path d="M62.74,68.11c0,0.36,0.03,0.89,0.08,1.17h-0.79c-0.03-0.18-0.07-0.47-0.08-0.82c-0.2,0.53-0.74,0.91-1.6,0.91
			c-1.29,0-1.69-0.87-1.69-1.6c0-0.8,0.51-1.68,2.4-1.68c0.32,0,0.56,0,0.81,0v-0.51c0-0.5-0.14-1.02-1.04-1.02
			c-0.77,0-1.04,0.35-1.12,0.94h-0.84c0.08-0.88,0.59-1.61,2-1.61c1.1,0,1.86,0.44,1.86,1.65V68.11z M61.92,66.72
			c-0.21,0-0.51,0-0.84,0c-1.28,0-1.52,0.52-1.52,1c0,0.51,0.31,0.94,0.98,0.94c1.04,0,1.38-0.7,1.38-1.83V66.72z"/>
		<path d="M64.4,64c0.71,2.24,1.19,3.72,1.35,4.46h0.01c0.11-0.62,1.02-3.29,1.4-4.46h0.86l-1.82,5.28h-0.95L63.48,64H64.4z"/>
		<path d="M69.37,66.81c-0.01,1.06,0.44,1.86,1.38,1.86c0.85,0,1.11-0.6,1.21-0.87h0.85c-0.17,0.66-0.69,1.59-2.1,1.59
			c-1.65,0-2.21-1.3-2.21-2.76c0-1.3,0.64-2.73,2.26-2.73c1.66,0,2.14,1.29,2.14,2.51c0,0.03,0,0.37-0.01,0.4H69.37z M72.03,66.17
			c-0.03-0.9-0.39-1.58-1.3-1.58c-1.05,0-1.29,0.95-1.34,1.58H72.03z"/>
		<path d="M74.61,66.81c-0.01,1.06,0.44,1.86,1.38,1.86c0.85,0,1.11-0.6,1.21-0.87h0.85c-0.17,0.66-0.69,1.59-2.1,1.59
			c-1.65,0-2.21-1.3-2.21-2.76c0-1.3,0.64-2.73,2.26-2.73c1.66,0,2.14,1.29,2.14,2.51c0,0.03,0,0.37-0.01,0.4H74.61z M77.27,66.17
			c-0.03-0.9-0.39-1.58-1.3-1.58c-1.05,0-1.29,0.95-1.34,1.58H77.27z"/>
		<path d="M83.43,61.7v6.21c0,0.51,0,1.05,0.02,1.38h-0.85c-0.01-0.14-0.03-0.47-0.03-0.78c-0.28,0.61-0.71,0.88-1.57,0.88
			c-1.37,0-2.05-1.16-2.05-2.73c0-1.53,0.79-2.76,2.22-2.76c0.85,0,1.25,0.34,1.39,0.63V61.7H83.43z M79.85,66.61
			c0,1.28,0.55,2.03,1.38,2.03c1.14,0,1.37-0.86,1.37-2.1c0-1.47-0.42-1.9-1.32-1.9C80.41,64.64,79.85,65.35,79.85,66.61z"/>
		<path d="M84.54,69.28v-0.05c0-0.74,0.4-1.82,1.97-3.11c1-0.83,1.4-1.16,1.4-1.96c0-0.63-0.34-1.22-1.18-1.22
			c-0.85,0-1.21,0.54-1.31,1.38H84.6c0.07-1.11,0.68-2.1,2.17-2.1c1.38,0,2.03,0.89,2.03,1.92c0,1.02-0.49,1.53-1.71,2.51
			c-0.84,0.69-1.33,1.34-1.51,1.88h3.43l-0.12,0.75H84.54z"/>
		<path d="M94.31,65.64c0,1.88-0.42,3.75-2.24,3.75c-1.89,0-2.26-1.94-2.26-3.73c0-1.8,0.6-3.44,2.27-3.44
			C93.82,62.21,94.31,63.8,94.31,65.64z M90.7,65.64c0,1.7,0.3,3.04,1.38,3.04c1.12,0,1.35-1.34,1.35-3.02
			c0-1.47-0.3-2.73-1.34-2.73C90.97,62.92,90.7,64.19,90.7,65.64z"/>
		<path d="M95.19,69.28v-0.05c0-0.74,0.4-1.82,1.97-3.11c1-0.83,1.4-1.16,1.4-1.96c0-0.63-0.34-1.22-1.18-1.22
			c-0.85,0-1.21,0.54-1.31,1.38h-0.83c0.07-1.11,0.68-2.1,2.17-2.1c1.38,0,2.03,0.89,2.03,1.92c0,1.02-0.49,1.53-1.71,2.51
			c-0.84,0.69-1.33,1.34-1.51,1.88h3.43l-0.12,0.75H95.19z"/>
		<path d="M103.31,69.28v-1.85h-3.13v-0.8l2.86-4.34h1.1v4.41h0.81l-0.09,0.73h-0.72v1.85H103.31z M103.31,64.73
			c0-0.57-0.01-1.29,0.02-1.72c-0.42,0.75-1.68,2.67-2.32,3.7h2.3V64.73z"/>
		<path d="M111.63,70.95c-0.52,0.3-1.29,0.42-2.12,0.42c-2.63,0-3.86-2.03-3.86-4.26c0-2.49,1.51-4.7,4.21-4.7
			c2.35,0,3.79,1.57,3.79,3.76c0,1.91-0.83,3.11-2.07,3.11c-0.59,0-0.96-0.29-1.03-0.81c-0.32,0.59-0.89,0.81-1.45,0.81
			c-0.76,0-1.39-0.55-1.39-1.81c0-1.77,0.93-2.94,2-2.94c0.68,0,1.03,0.37,1.1,0.73l0.11-0.62h0.78l-0.48,3.14
			c-0.09,0.59,0.11,0.82,0.49,0.82c0.71,0,1.25-0.87,1.25-2.39c0-1.84-1.17-3.15-3.12-3.15c-2.29,0-3.44,1.91-3.44,4.06
			c0,1.63,0.8,3.62,3.2,3.62c0.71,0,1.39-0.11,1.95-0.39L111.63,70.95z M108.53,67.4c0,0.85,0.37,1.17,0.79,1.17
			c0.61,0,1.14-0.43,1.31-1.85c0.1-0.84-0.09-1.5-0.8-1.5C108.93,65.22,108.53,66.32,108.53,67.4z"/>
		<path d="M118.98,68.88c0,1.65-0.66,2.58-2.26,2.58c-1.54,0-2.01-0.83-2.09-1.58h0.86c0.12,0.59,0.59,0.87,1.26,0.87
			c1.13,0,1.39-0.74,1.39-1.89v-0.43c-0.27,0.59-0.73,0.87-1.55,0.87c-1.24,0-2.05-1.04-2.05-2.67c0-1.71,0.95-2.72,2.17-2.72
			c0.83,0,1.27,0.34,1.41,0.75c0-0.23,0.03-0.53,0.04-0.65H119c-0.01,0.25-0.02,0.81-0.02,1.53V68.88z M115.44,66.61
			c0,1.23,0.52,1.93,1.36,1.93c1.01,0,1.36-0.63,1.36-1.96c0-1.32-0.29-1.94-1.32-1.94C115.97,64.65,115.44,65.38,115.44,66.61z"/>
		<path d="M120.49,65.64c0-0.94-0.01-1.41-0.02-1.64h0.84c0.02,0.15,0.03,0.57,0.03,0.75c0.24-0.45,0.7-0.85,1.48-0.85
			c0.7,0,1.15,0.31,1.35,0.91c0.23-0.48,0.76-0.91,1.56-0.91c0.8,0,1.58,0.41,1.58,1.8v3.59h-0.85v-3.44c0-0.64-0.21-1.2-0.96-1.2
			c-0.82,0-1.17,0.69-1.17,1.53v3.1h-0.84V65.8c0-0.65-0.27-1.15-0.95-1.15c-0.74,0-1.2,0.57-1.2,1.62v3.01h-0.86V65.64z"/>
		<path d="M132.46,68.11c0,0.36,0.03,0.89,0.08,1.17h-0.79c-0.04-0.18-0.07-0.47-0.08-0.82c-0.2,0.53-0.74,0.91-1.6,0.91
			c-1.29,0-1.69-0.87-1.69-1.6c0-0.8,0.51-1.68,2.4-1.68c0.32,0,0.56,0,0.81,0v-0.51c0-0.5-0.14-1.02-1.04-1.02
			c-0.77,0-1.04,0.35-1.12,0.94h-0.84c0.08-0.88,0.59-1.61,2-1.61c1.1,0,1.86,0.44,1.86,1.65V68.11z M131.64,66.72
			c-0.21,0-0.51,0-0.84,0c-1.28,0-1.52,0.52-1.52,1c0,0.51,0.31,0.94,0.98,0.94c1.04,0,1.38-0.7,1.38-1.83V66.72z"/>
		<path d="M133.99,61.7h0.86v1.12h-0.86V61.7z M133.99,64h0.86v5.28h-0.86V64z"/>
		<path d="M136.38,69.28V61.7h0.86v7.59H136.38z"/>
		<path d="M138.45,69.29v-1.43h0.85v1.43H138.45z"/>
		<path d="M144.52,67.6c-0.21,1.03-0.87,1.79-2.12,1.79c-1.49,0-2.23-0.98-2.23-2.75c0-1.52,0.77-2.74,2.29-2.74
			c1.41,0,1.99,0.97,2.06,1.84h-0.87c-0.1-0.6-0.43-1.13-1.21-1.13c-0.96,0-1.38,0.84-1.38,2.01c0,1.35,0.49,2.06,1.37,2.06
			c0.73,0,1.05-0.45,1.23-1.08H144.52z"/>
		<path d="M149.96,66.55c0,1.53-0.67,2.82-2.36,2.82c-1.64,0-2.29-1.34-2.29-2.79c0-1.39,0.76-2.68,2.36-2.68
			C149.16,63.9,149.96,65.03,149.96,66.55z M146.2,66.57c0,1.22,0.5,2.08,1.45,2.08c0.99,0,1.42-0.85,1.42-2.09
			c0-1.15-0.48-1.94-1.44-1.94C146.69,64.62,146.2,65.42,146.2,66.57z"/>
		<path d="M151.12,65.64c0-0.94-0.01-1.41-0.02-1.64h0.84c0.02,0.15,0.03,0.57,0.03,0.75c0.24-0.45,0.7-0.85,1.48-0.85
			c0.7,0,1.15,0.31,1.35,0.91c0.23-0.48,0.76-0.91,1.56-0.91c0.8,0,1.58,0.41,1.58,1.8v3.59h-0.85v-3.44c0-0.64-0.21-1.2-0.96-1.2
			c-0.82,0-1.17,0.69-1.17,1.53v3.1h-0.84V65.8c0-0.65-0.27-1.15-0.95-1.15c-0.74,0-1.2,0.57-1.2,1.62v3.01h-0.86V65.64z"/>
	</g>
	<g>
		<path d="M8.78,7.39c0,2.59-1.54,4.39-4.4,4.39c-2.81,0-4.34-1.8-4.37-4.26h2.44C2.48,8.74,2.97,9.6,4.37,9.6
			c1.43,0,1.95-0.84,1.95-2.14V0h2.46V7.39z"/>
		<path d="M11.24,11.62c-0.88,0-1.51-0.63-1.51-1.51c0-0.9,0.63-1.53,1.51-1.53c0.88,0,1.49,0.63,1.49,1.53
			C12.73,10.99,12.12,11.62,11.24,11.62z"/>
		<path d="M22.12,7.39c0,2.59-1.54,4.39-4.4,4.39c-2.81,0-4.34-1.8-4.37-4.26h2.44c0.03,1.22,0.53,2.07,1.93,2.07
			c1.43,0,1.95-0.84,1.95-2.14V0h2.46V7.39z"/>
		<path d="M24.58,11.62c-0.88,0-1.51-0.63-1.51-1.51c0-0.9,0.63-1.53,1.51-1.53s1.49,0.63,1.49,1.53
			C26.07,10.99,25.46,11.62,24.58,11.62z"/>
		<path d="M27.47,11.54V0h2.44v9.34h5.01v2.2H27.47z"/>
		<path d="M37.5,11.62c-0.88,0-1.51-0.63-1.51-1.51c0-0.9,0.63-1.53,1.51-1.53s1.49,0.63,1.49,1.53
			C38.99,10.99,38.38,11.62,37.5,11.62z"/>
		<path d="M46.4,2.8c1.03,0,1.9,0.45,2.54,1.27V0h2.22v11.54h-2.04V10.3c-0.68,0.9-1.61,1.4-2.72,1.4c-2.31,0-3.81-1.95-3.81-4.45
			C42.59,4.71,44.09,2.8,46.4,2.8z M46.9,9.71c1.11,0,2.03-0.87,2.03-2.49s-0.93-2.44-2.03-2.44c-1.09,0-2.01,0.84-2.01,2.48
			C44.89,8.86,45.81,9.71,46.9,9.71z"/>
		<path d="M53.84,2.28c-0.87,0-1.48-0.56-1.48-1.32c0-0.79,0.61-1.35,1.48-1.35c0.88,0,1.49,0.56,1.49,1.35
			C55.34,1.72,54.73,2.28,53.84,2.28z M52.75,11.54V2.96h2.23v8.58H52.75z"/>
		<path d="M67.47,7.39c0,2.59-1.54,4.39-4.4,4.39c-2.81,0-4.34-1.8-4.37-4.26h2.44c0.03,1.22,0.53,2.07,1.93,2.07
			c1.43,0,1.95-0.84,1.95-2.14V0h2.46V7.39z"/>
		<path d="M74.27,10.48c-0.56,0.8-1.41,1.22-2.59,1.22c-1.78,0-2.97-1.04-2.97-2.65c0-1.67,1.35-2.57,3.86-2.57
			c0.48,0,0.9,0.03,1.43,0.1V6.06c0-0.96-0.55-1.53-1.48-1.53c-0.96,0-1.54,0.56-1.62,1.53h-2.01c0.13-1.98,1.56-3.26,3.63-3.26
			c2.25,0,3.57,1.24,3.57,3.34v5.4h-1.82V10.48z M72.17,10.16c1.14,0,1.83-0.63,1.83-1.62V7.92c-0.53-0.08-0.9-0.11-1.29-0.11
			c-1.27,0-1.9,0.4-1.9,1.17C70.82,9.71,71.33,10.16,72.17,10.16z"/>
		<path d="M82.37,11.7c-1.11,0-2.04-0.5-2.7-1.4v1.24h-2.06V0h2.23v4.07c0.63-0.84,1.49-1.27,2.52-1.27c2.31,0,3.81,1.91,3.81,4.45
			C86.18,9.76,84.69,11.7,82.37,11.7z M81.87,4.77c-1.08,0-2.01,0.82-2.01,2.44s0.9,2.49,2.01,2.49c1.09,0,2.01-0.85,2.01-2.46
			C83.88,5.61,82.97,4.77,81.87,4.77z"/>
		<path d="M92.32,10.48c-0.56,0.8-1.41,1.22-2.59,1.22c-1.78,0-2.97-1.04-2.97-2.65c0-1.67,1.35-2.57,3.86-2.57
			c0.48,0,0.9,0.03,1.43,0.1V6.06c0-0.96-0.55-1.53-1.48-1.53c-0.96,0-1.54,0.56-1.62,1.53h-2.01c0.13-1.98,1.56-3.26,3.63-3.26
			c2.25,0,3.57,1.24,3.57,3.34v5.4h-1.82V10.48z M90.22,10.16c1.14,0,1.83-0.63,1.83-1.62V7.92c-0.53-0.08-0.9-0.11-1.29-0.11
			c-1.27,0-1.9,0.4-1.9,1.17C88.86,9.71,89.38,10.16,90.22,10.16z"/>
		<path d="M97.9,11.54h-2.23V2.96h2.06v1.66c0.63-1.09,1.96-1.75,3.34-1.75v2.31c-1.9-0.14-3.17,0.31-3.17,2.2V11.54z"/>
		<path d="M101.82,11.54V0h2.23v6.59l3.13-3.63h2.57l-3.55,4.11l3.97,4.47h-2.84l-3.28-3.99v3.99H101.82z"/>
		<path d="M113.04,11.54h-2.23V0h2.23v4.08c0.59-0.79,1.33-1.29,2.46-1.29c1.72,0,2.91,1.13,2.91,3.2v5.55h-2.22V6.75
			c0-1.27-0.5-1.98-1.51-1.98c-0.88,0-1.64,0.71-1.64,2.09V11.54z"/>
		<path d="M119.37,7.22c0-2.56,1.78-4.42,4.26-4.42c2.72,0,4.52,2.2,4.11,5h-6.09c0.14,1.4,0.82,2.17,1.96,2.17
			c0.98,0,1.64-0.48,1.9-1.33h2.22c-0.48,1.95-1.98,3.05-4.07,3.05C121.09,11.69,119.37,9.9,119.37,7.22z M121.68,6.38h3.7
			c-0.06-1.19-0.74-1.95-1.8-1.95C122.54,4.44,121.88,5.11,121.68,6.38z"/>
		<path d="M128.84,11.54V0h2.25v11.54H128.84z"/>
		<path d="M143.59,7.39c0,2.59-1.54,4.39-4.4,4.39c-2.81,0-4.34-1.8-4.37-4.26h2.44c0.03,1.22,0.53,2.07,1.93,2.07
			c1.43,0,1.95-0.84,1.95-2.14V0h2.46V7.39z"/>
		<path d="M150.39,10.48c-0.56,0.8-1.41,1.22-2.59,1.22c-1.78,0-2.97-1.04-2.97-2.65c0-1.67,1.35-2.57,3.86-2.57
			c0.48,0,0.9,0.03,1.43,0.1V6.06c0-0.96-0.55-1.53-1.48-1.53c-0.96,0-1.54,0.56-1.62,1.53h-2.01c0.13-1.98,1.56-3.26,3.63-3.26
			c2.25,0,3.57,1.24,3.57,3.34v5.4h-1.82V10.48z M148.29,10.16c1.14,0,1.83-0.63,1.83-1.62V7.92c-0.53-0.08-0.9-0.11-1.29-0.11
			c-1.27,0-1.9,0.4-1.9,1.17C146.94,9.71,147.45,10.16,148.29,10.16z"/>
		<path d="M158.01,11.54h-2.44l-3.17-8.58h2.41L156.85,9l2.06-6.04h2.25L158.01,11.54z"/>
		<path d="M160.87,7.22c0-2.56,1.78-4.42,4.26-4.42c2.72,0,4.52,2.2,4.11,5h-6.09c0.14,1.4,0.82,2.17,1.96,2.17
			c0.98,0,1.64-0.48,1.9-1.33h2.22c-0.48,1.95-1.98,3.05-4.07,3.05C162.59,11.69,160.87,9.9,160.87,7.22z M163.18,6.38h3.7
			c-0.06-1.19-0.74-1.95-1.8-1.95C164.04,4.44,163.38,5.11,163.18,6.38z"/>
		<path d="M169.61,7.22c0-2.56,1.78-4.42,4.26-4.42c2.72,0,4.52,2.2,4.11,5h-6.09c0.14,1.4,0.82,2.17,1.96,2.17
			c0.98,0,1.64-0.48,1.9-1.33h2.22c-0.48,1.95-1.98,3.05-4.07,3.05C171.33,11.69,169.61,9.9,169.61,7.22z M171.93,6.38h3.7
			c-0.06-1.19-0.74-1.95-1.8-1.95C172.78,4.44,172.12,5.11,171.93,6.38z"/>
		<path d="M182.17,2.8c1.03,0,1.9,0.45,2.54,1.27V0h2.22v11.54h-2.04V10.3c-0.68,0.9-1.61,1.4-2.72,1.4c-2.31,0-3.81-1.95-3.81-4.45
			C178.36,4.71,179.85,2.8,182.17,2.8z M182.66,9.71c1.11,0,2.03-0.87,2.03-2.49s-0.93-2.44-2.03-2.44c-1.09,0-2.01,0.84-2.01,2.48
			C180.66,8.86,181.57,9.71,182.66,9.71z"/>
	</g>
</g>
</svg>
